<svg width="580" height="400" xmlns="http://www.w3.org/2000/svg">
 <!-- Created with Method Draw - http://github.com/duopixel/Method-Draw/ -->

 <g>
  <title>background</title>
  <rect fill="none" id="canvas_background" height="402" width="582" y="-1" x="-1"/>
  <g display="none" overflow="visible" y="0" x="0" height="100%" width="100%" id="canvasGrid">
   <rect fill="url(#gridpattern)" stroke-width="0" y="0" x="0" height="100%" width="100%"/>
  </g>
 </g>
 <g>
  <title>Layer 1</title>
  <g stroke="null" id="svg_16">
   <g stroke="null" transform="matrix(0.7250373609287054,0,0,0.7250373609287054,-2706.174607036872,-1927.6019290113036) " id="svg_8">
    <path stroke="null" id="svg_10" fill-rule="nonzero" fill="rgb(0%,0%,0%)" d="m4182.365726,2882.518557c4.14062,0 7.5,-3.35547 7.5,-7.5l0,-14.64453c0,-4.14453 -3.35938,-7.5 -7.5,-7.5c-4.14063,0 -7.5,3.35547 -7.5,7.5l0,14.64453c0,4.14453 3.35937,7.5 7.5,7.5zm0,0"/>
    <path stroke="null" id="svg_11" fill-rule="nonzero" fill="rgb(0%,0%,0%)" d="m4172.389156,2904.049807l19.95313,0c4.14062,0 7.5,-3.35547 7.5,-7.5c0,-4.14063 -3.35938,-7.5 -7.5,-7.5l-19.95313,0c-4.14062,0 -7.5,3.35937 -7.5,7.5c0,4.14453 3.35938,7.5 7.5,7.5zm0,0"/>
    <path stroke="null" id="svg_12" fill-rule="nonzero" fill="rgb(0%,0%,0%)" d="m4031.693846,2882.518557c4.14063,0 7.5,-3.35547 7.5,-7.5l0,-14.64453c0,-4.14453 -3.35937,-7.5 -7.5,-7.5c-4.14453,0 -7.5,3.35547 -7.5,7.5l0,14.64453c0,4.14453 3.35547,7.5 7.5,7.5zm0,0"/>
    <path stroke="null" id="svg_13" fill-rule="nonzero" fill="rgb(0%,0%,0%)" d="m4021.717286,2904.049807l19.94922,0c4.14453,0 7.5,-3.35547 7.5,-7.5c0,-4.14063 -3.35547,-7.5 -7.5,-7.5l-19.94922,0c-4.14453,0 -7.5,3.35937 -7.5,7.5c0,4.14453 3.35547,7.5 7.5,7.5zm0,0"/>
    <path stroke="null" id="svg_14" fill-rule="nonzero" fill="rgb(0%,0%,0%)" d="m4107.029786,2903.225587c7.41406,0 14.38672,-3.10938 19.12109,-8.52734c2.72657,-3.11719 2.41016,-7.85547 -0.71093,-10.58204c-3.11719,-2.72656 -7.85547,-2.40625 -10.58204,0.71094c-1.88671,2.16016 -4.74218,3.39844 -7.82812,3.39844c-3.08594,0 -5.94141,-1.23828 -7.82813,-3.39844c-2.72656,-3.11719 -7.46484,-3.4375 -10.58203,-0.71094c-3.12109,2.72657 -3.4375,7.46485 -0.71093,10.58204c4.73437,5.41796 11.70312,8.52734 19.12109,8.52734zm0,0"/>
    <path stroke="null" id="svg_15" fill-rule="nonzero" fill="rgb(0%,0%,0%)" d="m3934.271976,2890.975587c0,46.31641 18.33203,79.60937 54.48828,98.96094c9.57422,5.12109 20.32422,9.29687 32.47656,12.57031c-2.14453,12.94531 -8.58203,25.83594 -15.35156,39.375c-9.85547,19.71484 -21.02735,42.05859 -20.26172,68.64844c0.12109,4.14062 3.57812,7.40234 7.71484,7.27734c4.14063,-0.11719 7.39844,-3.57031 7.28125,-7.71094c-0.66015,-22.82031 9.17188,-42.48437 18.6836,-61.5039c7.16406,-14.32813 13.99218,-27.99219 16.59375,-42.71094c12.46875,2.42969 26.2539,4.07812 41.54687,4.97266c19.67969,1.14843 39.50391,1.12109 59.17969,0c15.29297,-0.89454 29.07422,-2.54297 41.53906,-4.97266c2.60156,14.71875 9.4375,28.38281 16.60156,42.71094c8.88672,17.76562 18.07422,36.13281 18.69141,57.04687c0.10938,3.77344 -0.07812,7.63672 -0.53906,11.41016c-2.47266,20.16797 -13.02344,41.10156 -32.01953,63.6289c-5.0625,6 -12.53907,9.44141 -20.52344,9.44141l-5.28516,0c19.73828,-42.45703 14.02344,-94.59375 13.74219,-96.98828c-0.47656,-4.11328 -4.19922,-7.0625 -8.30859,-6.58594c-4.11719,0.47656 -7.06641,4.19531 -6.58985,8.3125c0.06641,0.57031 6.15235,55.89844 -15.65234,95.26172l-23.75,0l0,-96.125c0,-4.14062 -3.35938,-7.5 -7.5,-7.5c-4.14063,0 -7.5,3.35938 -7.5,7.5l0,96.125l-23.75,0c-21.71094,-39.21484 -15.73438,-94.51953 -15.65234,-95.26562c0.47656,-4.11329 -2.47266,-7.83204 -6.58985,-8.3086c-4.11328,-0.47656 -7.83594,2.47266 -8.30859,6.58594c-0.27735,2.39453 -5.9961,54.53125 13.74219,96.98828l-5.28516,0c-7.98047,0 -15.46094,-3.44141 -20.51953,-9.44141c-12.57422,-14.90625 -21.59375,-29.38671 -26.81641,-43.04296c-1.47656,-3.8711 -5.8125,-5.8086 -9.68359,-4.32813c-3.86719,1.47656 -5.80469,5.8125 -4.32813,9.68359c5.90625,15.44532 15.51172,30.9375 29.35938,47.35938c7.91797,9.38672 19.57812,14.76953 31.98828,14.76953l106.6875,0c12.41406,0 24.07422,-5.38281 31.98828,-14.76953c8.73047,-10.35156 15.84766,-20.47266 21.39063,-30.42969c25.40625,-4.76562 44.75781,-15.38672 59.03125,-32.42187c17.1875,-20.51172 23.28125,-45.95703 29.17578,-70.56641c3.44531,-14.39453 6.70312,-27.99219 11.96875,-40.67578c1.58593,-3.82813 -0.22657,-8.21484 -4.05469,-9.80469c-3.82813,-1.58594 -8.21484,0.22656 -9.80078,4.05469c-5.71875,13.78516 -9.26953,28.60156 -12.70313,42.92969c-5.48828,22.92187 -11.16797,46.625 -26.08203,64.42578c-9.8789,11.79297 -22.85156,19.95703 -39.40625,24.7539c2.67188,-7.04296 4.5,-14.01562 5.54297,-20.98437c0.45703,-3.04688 0.78125,-6.11719 0.9375,-9.19922c21.48047,-12.37891 27.08984,-35.78906 34.07813,-64.96875c4.6914,-19.58984 10.01171,-41.79687 21.34765,-62.25781c12.87891,-23.23828 31.625,-40.70703 57.32031,-53.40235c6.26954,-3.09375 14.08204,-0.43359 17.16797,5.81641c3.09766,6.27344 0.44141,14.07813 -5.8164,17.17188c-15.1211,7.46875 -27.0586,16.77734 -36.5,28.46093c-2.60547,3.21875 -2.10547,7.94141 1.11718,10.54688c3.22266,2.60156 7.94532,2.10156 10.54688,-1.11719c8.05078,-9.96094 18.34766,-17.95312 31.48047,-24.44531c13.49609,-6.66797 19.28906,-23.47266 12.72656,-37.04297c-0.03516,-0.07031 -0.07031,-0.14453 -0.10547,-0.21875c-6.66406,-13.48828 -23.48437,-19.28125 -37.04297,-12.72656c-0.07422,0.03515 -0.14453,0.07031 -0.21875,0.10547c-28.52343,14.09375 -49.39062,33.58203 -63.79687,59.57812c-12.32813,22.25 -17.89844,45.51172 -22.81641,66.03906c-5.75781,24.03907 -9.70703,40.48828 -20.36719,50.54688c-2.86718,-19.71875 -11.51562,-37.06641 -19.30468,-52.63672c-6.77344,-13.53906 -13.21094,-26.42969 -15.35547,-39.375c12.15234,-3.27344 22.90234,-7.44922 32.47265,-12.57031c36.15625,-19.35157 54.49219,-52.64844 54.49219,-98.96485c0,-19.69531 -2.14844,-38.3164 -6.34765,-55.67578c30.01562,-47.10547 25.57421,-95.71094 20.13281,-120.77734c-2.42578,-11.17969 -11.77344,-19.4961 -23.25,-20.69922c-4.44141,-0.46484 -8.90625,-0.69922 -13.26563,-0.69922c-38.96484,0 -64.01172,18.29297 -73.43359,26.66406c-23.54688,-11.65625 -49.90625,-17.98828 -76.59375,-17.98828c-26.69141,0 -53.05078,6.33203 -76.59375,17.98828c-9.42578,-8.37109 -34.47656,-26.66406 -73.4375,-26.66406c-4.35938,0 -8.82031,0.23438 -13.26172,0.69922c-11.48047,1.20312 -20.82422,9.51953 -23.25,20.69922c-5.44531,25.0664 -9.88281,73.67187 20.13281,120.77734c-4.19922,17.35938 -6.34765,35.98047 -6.34765,55.67969zm28.35937,-152.13672c12.14453,0.96094 21.62891,4.76563 28.07813,8.33594c-1.13282,1.05469 -2.24219,2.13281 -3.34375,3.22265c-8.38672,8.30469 -15.88282,17.5 -22.33203,27.38672c-3.39844,-14.53515 -3.45704,-28.125 -2.40235,-38.94531zm286.39453,38.94531c-4.13281,-6.33984 -8.67578,-12.36328 -13.60937,-18.0625c-3.66016,-4.22656 -7.53516,-8.26953 -11.60156,-12.10547c-0.15625,-0.14453 -0.3086,-0.29687 -0.46485,-0.4414c6.44922,-3.56641 15.9336,-7.375 28.07422,-8.33203c1.05469,10.8125 0.99609,24.41015 -2.39844,38.9414zm8.03516,-69.66406c3.83984,0 7.77344,0.20703 11.69922,0.61719c5.02344,0.52734 9.10547,4.1289 10.15234,8.96484c4.4961,20.6875 8.27344,58.98047 -11.36328,97.72266c-0.31641,-0.89063 -2.26562,-5.75391 -2.79297,-7.33985c-1.69531,-4.20312 -3.52734,-8.30859 -5.5039,-12.3164c9.40234,-25.4375 8.60937,-49.66016 6.1875,-65.76953c-0.54688,-3.64453 -3.66016,-6.34766 -7.34375,-6.38282l-0.82813,-0.0039c-21.28516,0 -36.77344,7.25781 -46,13.32031c-4.33203,-3.33203 -8.83594,-6.45703 -13.51172,-9.35937c9.96485,-7.625 30.12891,-19.45313 59.30469,-19.45313zm-50.03125,44.65234c40.27734,33.64844 57.75781,86.97657 57.75781,138.19922c0,40.92578 -15.23047,68.96875 -46.5664,85.73828c-28.5586,15.28125 -62.48047,18.67579 -94.35157,19.70704c-0.25781,0.00781 -33.42187,0.00781 -33.67968,0c-31.88282,-1.03907 -65.75782,-4.40625 -94.35157,-19.70704c-31.33593,-16.76953 -46.5664,-44.8125 -46.5664,-85.73828c0,-47.47265 14.24218,-95.44531 48.42187,-129.64453c28.59766,-28.61328 69.00781,-44.53125 109.33594,-44.53125c36.60547,0 72.51562,13.01563 100,35.97656zm-271.88672,-35.07031c1.05078,-4.83594 5.13281,-8.4375 10.15625,-8.96484c3.92578,-0.41016 7.85938,-0.61719 11.69922,-0.61719c28.96875,0 49.23047,11.85547 59.26172,19.47656c-4.66016,2.89844 -9.14844,6.01563 -13.46875,9.33594c-9.22656,-6.0625 -24.71875,-13.32031 -46,-13.32031l-0.82813,0.0039c-3.68359,0.03516 -6.79687,2.73829 -7.34375,6.38282c-2.42187,16.10937 -3.21484,40.33203 6.1875,65.76953c-1.98437,4.02344 -3.82422,8.14844 -5.52343,12.36719c-0.60938,1.50781 -2.44532,6.36718 -2.77344,7.29296c-19.63672,-38.74609 -15.85938,-77.03906 -11.36719,-97.72656zm0,0"/>
   </g>
  </g>
 </g>
</svg>